# xmcd
#
# Track frame offsets:
#	183
#	24608
#	39233
#	50895
#	63908
#	75383
#	89170
#	106395
#	120595
#	134670
#	144833
#	158458
#	174733
#	187920
#	201158
#	216458
#	230633
#	242708
#	266933
#	279083
#
# Disc length: 3927
#
# Revision: 1
# Processed by: cddbd v1.5.1PL0 Copyright (c) Steve Scherf et al.
# Submitted via: EasyCDDAExtractor 4.6.9.1
# Normalized: r0:DSETVAR1,TDELIM( - )
#
DISCID=220f5514
DTITLE=Various Artist - mi ritorni In Mente
DYEAR=1900
DGENRE=
TTITLE0=Umberto Bindi - Il Nostro Concerto
TTITLE1=Domenico Modugno - Io Mammeta E Tu
TTITLE2=Fausto Cigliano - Io T'Ho Incontrato A Napoli
TTITLE3=Fred Buscaglione - Non Partir
TTITLE4=Domenico Modugno - La Donna Riccia
TTITLE5=Marino Marini - La Più Bella Del Mondo
TTITLE6=Aurelio Fierro - Lazzarella
TTITLE7=Quartetto Cetra - Musetto
TTITLE8=Edoardo Vianello - Ma Guardatela
TTITLE9=Nicola Di Bruno - Mambo Italiano
TTITLE10=Fred Buscaglione - Le Riffi
TTITLE11=Domenico Modugno - Nel Blu Dipinto Di Blu
TTITLE12=Carla Boni - Johnny Guitar
TTITLE13=Nilla Pizzi - Papaveri E Papere
TTITLE14=Alberto Rabagliati - Silenzioso Slow
TTITLE15=Roberto Murolo - Scalinatella
TTITLE16=Natalino Otto - Prigionieri Del cielo
TTITLE17=Renato Rascel - Romantica
TTITLE18=Miriam Del Mare - Tango Delle Capinere
TTITLE19=Gino Latila - tutte Le Mamme
EXTD=
EXTT0=
EXTT1=
EXTT2=
EXTT3=
EXTT4=
EXTT5=
EXTT6=
EXTT7=
EXTT8=
EXTT9=
EXTT10=
EXTT11=
EXTT12=
EXTT13=
EXTT14=
EXTT15=
EXTT16=
EXTT17=
EXTT18=
EXTT19=
PLAYORDER=
